REM DIRINDEX 1\4,1\2\5,1\2\6,1\3\7,1\3\8,1\3\9,1\3\10
REM DIRNAME cjc107,folder01,folder02,folder03,folder04,folder05,folder06,folder07,folder08,folder09
TITLE ""
FILE "DISC2Track32.mp3" MP3
  TRACK 01 AUDIO
    TITLE "0:"
    INDEX 01 00:00:00
  TRACK 02 AUDIO
    TITLE "7:cjc107_2053"
    INDEX 01 00:00:01
  TRACK 03 AUDIO
    TITLE "0:"
    INDEX 01 00:02:53
  TRACK 04 AUDIO
    TITLE "8:cjc107_2054"
    INDEX 01 00:03:64
  TRACK 05 AUDIO
    TITLE "0:"
    INDEX 01 00:05:30
  TRACK 06 AUDIO
    TITLE "9:cjc107_2055"
    INDEX 01 00:05:34
  TRACK 07 AUDIO
    TITLE "0:"
    INDEX 01 00:07:25
  TRACK 08 AUDIO
    TITLE "8:cjc107_2056"
    INDEX 01 00:07:74
  TRACK 09 AUDIO
    TITLE "0:"
    INDEX 01 00:09:06
  TRACK 10 AUDIO
    TITLE "9:cjc107_2057"
    INDEX 01 00:09:08
  TRACK 11 AUDIO
    TITLE "0:"
    INDEX 01 00:11:27
  TRACK 12 AUDIO
    TITLE "8:cjc107_2058"
    INDEX 01 00:11:74
  TRACK 13 AUDIO
    TITLE "0:"
    INDEX 01 00:13:00
  TRACK 14 AUDIO
    TITLE "9:cjc107_2059"
    INDEX 01 00:13:04
  TRACK 15 AUDIO
    TITLE "0:"
    INDEX 01 00:14:11
  TRACK 16 AUDIO
    TITLE "8:cjc107_2060"
    INDEX 01 00:14:49
  TRACK 17 AUDIO
    TITLE "0:"
    INDEX 01 00:15:62
  TRACK 18 AUDIO
    TITLE "9:cjc107_2061"
    INDEX 01 00:15:68
  TRACK 19 AUDIO
    TITLE "0:"
    INDEX 01 00:18:19
  TRACK 20 AUDIO
    TITLE "8:cjc107_2062"
    INDEX 01 00:18:64
  TRACK 21 AUDIO
    TITLE "0:"
    INDEX 01 00:20:24
  TRACK 22 AUDIO
    TITLE "9:cjc107_2063"
    INDEX 01 00:20:32
  TRACK 23 AUDIO
    TITLE "0:"
    INDEX 01 00:23:42
  TRACK 24 AUDIO
    TITLE "8:cjc107_2064"
    INDEX 01 00:24:18
  TRACK 25 AUDIO
    TITLE "0:"
    INDEX 01 00:25:29
  TRACK 26 AUDIO
    TITLE "9:cjc107_2065"
    INDEX 01 00:25:33
  TRACK 27 AUDIO
    TITLE "0:"
    INDEX 01 00:28:25
  TRACK 28 AUDIO
    TITLE "8:cjc107_2066"
    INDEX 01 00:28:70
  TRACK 29 AUDIO
    TITLE "0:"
    INDEX 01 00:30:14
  TRACK 30 AUDIO
    TITLE "9:cjc107_2067"
    INDEX 01 00:30:20
  TRACK 31 AUDIO
    TITLE "0:"
    INDEX 01 00:31:53
  TRACK 32 AUDIO
    TITLE "8:cjc107_2068"
    INDEX 01 00:32:25
  TRACK 33 AUDIO
    TITLE "0:"
    INDEX 01 00:33:34
  TRACK 34 AUDIO
    TITLE "9:cjc107_2069"
    INDEX 01 00:33:36
  TRACK 35 AUDIO
    TITLE "0:"
    INDEX 01 00:35:63
  TRACK 36 AUDIO
    TITLE "8:cjc107_2070"
    INDEX 01 00:36:33
  TRACK 37 AUDIO
    TITLE "0:"
    INDEX 01 00:37:67
  TRACK 38 AUDIO
    TITLE "9:cjc107_2071"
    INDEX 01 00:37:69
  TRACK 39 AUDIO
    TITLE "0:"
    INDEX 01 00:39:11
  TRACK 40 AUDIO
    TITLE "8:cjc107_2072"
    INDEX 01 00:39:56
  TRACK 41 AUDIO
    TITLE "0:"
    INDEX 01 00:40:72
  TRACK 42 AUDIO
    TITLE "9:cjc107_2073"
    INDEX 01 00:41:00
  TRACK 43 AUDIO
    TITLE "0:"
    INDEX 01 00:42:49
  TRACK 44 AUDIO
    TITLE "8:cjc107_2074"
    INDEX 01 00:43:21
  TRACK 45 AUDIO
    TITLE "0:"
    INDEX 01 00:44:34
  TRACK 46 AUDIO
    TITLE "9:cjc107_2075"
    INDEX 01 00:44:42
  TRACK 47 AUDIO
    TITLE "0:"
    INDEX 01 00:46:25
  TRACK 48 AUDIO
    TITLE "8:cjc107_2076"
    INDEX 01 00:46:66
  TRACK 49 AUDIO
    TITLE "0:"
    INDEX 01 00:48:14
  TRACK 50 AUDIO
    TITLE "9:cjc107_2077"
    INDEX 01 00:48:16
  TRACK 51 AUDIO
    TITLE "0:"
    INDEX 01 00:50:05
  TRACK 52 AUDIO
    TITLE "8:cjc107_2078"
    INDEX 01 00:50:50
  TRACK 53 AUDIO
    TITLE "0:"
    INDEX 01 00:51:62
  TRACK 54 AUDIO
    TITLE "9:cjc107_2079"
    INDEX 01 00:51:67
  TRACK 55 AUDIO
    TITLE "0:"
    INDEX 01 00:53:31
  TRACK 56 AUDIO
    TITLE "8:cjc107_2080"
    INDEX 01 00:54:01
  TRACK 57 AUDIO
    TITLE "0:"
    INDEX 01 00:55:22
  TRACK 58 AUDIO
    TITLE "9:cjc107_2081"
    INDEX 01 00:55:26
  TRACK 59 AUDIO
    TITLE "0:"
    INDEX 01 00:57:01
  TRACK 60 AUDIO
    TITLE "8:cjc107_2082"
    INDEX 01 00:57:46
  TRACK 61 AUDIO
    TITLE "0:"
    INDEX 01 00:58:58
  TRACK 62 AUDIO
    TITLE "9:cjc107_2083"
    INDEX 01 00:58:62
  TRACK 63 AUDIO
    TITLE "0:"
    INDEX 01 01:00:64
  TRACK 64 AUDIO
    TITLE "10:cjc107_2084"
    INDEX 01 01:02:30
  TRACK 65 AUDIO
    TITLE "10:cjc107_2085"
    INDEX 01 01:09:16
  TRACK 66 AUDIO
    TITLE "10:cjc107_2086"
    INDEX 01 01:21:16
  TRACK 67 AUDIO
    TITLE "10:cjc107_2087"
    INDEX 01 01:29:25
  TRACK 68 AUDIO
    TITLE "10:cjc107_2088"
    INDEX 01 01:34:24
  TRACK 69 AUDIO
    TITLE "0:"
    INDEX 01 01:36:70
